# xmcd
#
# Track frame offsets: 
#        150
#        19817
#        43402
#        62385
#        86814
#        112288
#        128557
#        150975
#        174456
#        185677
#        202356
#        228994
#        245218
#        258183
#        272508
#        288078
#        308512
#        324761
#
# Disc length: 4728 seconds
#
# Revision: 1
# Processed by: cddbd v1.5.2PL0 Copyright (c) Steve Scherf et al.
# Submitted via: ExactAudioCopy v1.3
#
DISCID=fa127612
DTITLE=Various Artist - Akella Presents - vol. 173 - Blues-Rock  CD1
DYEAR=2019
DGENRE=Blues
TTITLE0=Andreas Diehlmann Band - Oh Well
TTITLE1=Jan Lindqvist - Some People 2
TTITLE2=Adi Barar Band - I'm Your Hoochie Coochie Man
TTITLE3=Dave Steffen Band - Second Wind
TTITLE4=Joost De Lange Band - Fly On
TTITLE5=Krissy Matthews - Level With The Devil
TTITLE6=Juniper Inc. - Boneshaker
TTITLE7=Chad Wesley - Guitar Man
TTITLE8=Bacon Fat - Where No One Went Before
TTITLE9=Revolution Highway - Young And Wild
TTITLE10=The Steel Woods - Changes
TTITLE11=David Christensen - Sliding Thru
TTITLE12=M Train - I've Been Gone To Long
TTITLE13=Dustin Douglas and The Electric Gentlemen - Destiny
TTITLE14=Bjorn Berge - Mr. Bones
TTITLE15=The Cards - Rock and Roll Rocketship
TTITLE16=Meyer Bliss - Better Times
TTITLE17=Blues Cousins - The Brother
EXTD=
EXTT0=
EXTT1=
EXTT2=
EXTT3=
EXTT4=
EXTT5=
EXTT6=
EXTT7=
EXTT8=
EXTT9=
EXTT10=
EXTT11=
EXTT12=
EXTT13=
EXTT14=
EXTT15=
EXTT16=
EXTT17=
PLAYORDER=
